<svg width="29" height="29" viewBox="0 0 29 29" fill="none" xmlns="http://www.w3.org/2000/svg">
<path d="M8.17184 28.7333H2.9504C2.3456 28.7298 1.76655 28.4881 1.33888 28.0604C0.911218 27.6327 0.669442 27.0537 0.666016 26.4489V13.3953C0.669442 12.7905 0.911218 12.2114 1.33888 11.7838C1.76655 11.3561 2.3456 11.1143 2.9504 11.1109H8.17184C8.43044 11.1143 8.6775 11.2185 8.86038 11.4014C9.04325 11.5843 9.14748 11.8313 9.15086 12.0899V27.7543C9.14748 28.0129 9.04325 28.2599 8.86038 28.4428C8.6775 28.6257 8.43044 28.7299 8.17184 28.7333ZM2.9504 13.0689C2.86385 13.0689 2.78084 13.1033 2.71964 13.1645C2.65844 13.2257 2.62406 13.3087 2.62406 13.3953V26.4489C2.62406 26.5354 2.65844 26.6185 2.71964 26.6797C2.78084 26.7409 2.86385 26.7752 2.9504 26.7752H7.19282V13.0689H2.9504Z" fill="white" fill-opacity="0.8"/>
<path d="M22.9616 28.7333H8.17189C7.91329 28.7299 7.66623 28.6257 7.48336 28.4428C7.30048 28.2599 7.19625 28.0129 7.19287 27.7543V12.0899C7.19399 11.9063 7.24352 11.7262 7.33646 11.5678L13.0409 2.43025C13.3633 1.91063 13.8132 1.48201 14.3477 1.18502C14.8823 0.888034 15.4839 0.732538 16.0954 0.733279H16.487C17.0316 0.739613 17.5677 0.869785 18.0545 1.11394C18.5414 1.35809 18.9663 1.70982 19.2971 2.1425C19.6279 2.57517 19.8559 3.07744 19.9638 3.61128C20.0718 4.14511 20.0568 4.69651 19.9201 5.22372L17.9229 12.4163H24.6194C25.1447 12.4178 25.6634 12.5341 26.139 12.7572C26.6145 12.9803 27.0356 13.3046 27.3726 13.7076C27.7097 14.1105 27.9545 14.5823 28.09 15.0898C28.2255 15.5973 28.2483 16.1283 28.157 16.6456L26.4992 25.7832C26.3468 26.6106 25.9096 27.3586 25.2634 27.8974C24.6173 28.4362 23.803 28.732 22.9616 28.7333ZM9.15091 26.7752H22.9616C23.3396 26.7793 23.707 26.651 24.0003 26.4126C24.2935 26.1742 24.4941 25.8407 24.5672 25.4699L26.225 16.3323C26.267 16.0975 26.257 15.8564 26.1957 15.6258C26.1344 15.3953 26.0233 15.181 25.8702 14.9981C25.7171 14.8151 25.5258 14.668 25.3097 14.567C25.0936 14.466 24.858 14.4136 24.6194 14.4135H16.6567C16.5048 14.4135 16.3549 14.3781 16.2189 14.3101C16.083 14.2421 15.9647 14.1434 15.8735 14.0219C15.7816 13.9032 15.7193 13.7643 15.6921 13.6167C15.6648 13.469 15.6733 13.317 15.7169 13.1734L18.0535 4.72768C18.1196 4.48617 18.1292 4.23268 18.0816 3.98684C18.0341 3.741 17.9305 3.50941 17.7791 3.31C17.6276 3.11059 17.4323 2.94871 17.2083 2.8369C16.9842 2.72509 16.7374 2.66635 16.487 2.66521H16.0954C15.8198 2.65915 15.5472 2.72301 15.3029 2.85084C15.0587 2.97867 14.8508 3.1663 14.6987 3.39622L9.15091 12.364V26.7752Z" fill="white" fill-opacity="0.8"/>
</svg>
