<svg width="28" height="28" viewBox="0 0 28 28" fill="none" xmlns="http://www.w3.org/2000/svg">
<g clip-path="url(#clip0_8_193)">
<path d="M27.8045 0.25037C27.6418 0.0873759 27.4187 -0.004482 27.1897 0.000217705C27.0895 0.00149945 24.6997 0.0401653 21.5494 0.820317C18.6245 1.54471 14.4704 3.07532 11.2921 6.25361C10.9228 6.62318 10.5765 7.0062 10.2501 7.39863C7.6729 7.04893 5.19616 7.77268 3.02575 9.52525C1.17556 11.0191 0.203998 12.7324 0.163623 12.8046C0.0200683 13.0609 0.0183594 13.3728 0.15871 13.6309C0.299274 13.8887 0.562457 14.0562 0.855762 14.0746L5.70373 14.3773L4.37542 15.7056C4.2152 15.8658 4.12526 16.083 4.12526 16.3097C4.12526 16.5361 4.2152 16.7534 4.37542 16.9136L5.04683 17.585C5.03765 17.5942 5.02782 17.6032 5.01864 17.6124C2.13942 20.4918 2.05013 24.9533 2.04778 25.142C2.04479 25.3722 2.13515 25.594 2.29793 25.7568C2.45815 25.917 2.6754 26.0069 2.90184 26.0069H2.91274C3.10137 26.0046 7.56289 25.9153 10.4421 23.0358C10.4515 23.0267 10.4605 23.017 10.4694 23.0076L11.1411 23.6793C11.3013 23.8395 11.5185 23.9294 11.745 23.9294C11.9716 23.9294 12.1889 23.8395 12.3491 23.6793L13.6774 22.3507L13.9801 27.1989C13.9983 27.492 14.166 27.7552 14.424 27.8958C14.5514 27.9654 14.6919 28 14.8327 28C14.9765 28 15.1204 27.9637 15.2501 27.8911C15.3223 27.8505 17.0356 26.8791 18.5294 25.0289C20.282 22.8583 21.006 20.3818 20.6563 17.8046C21.0485 17.4784 21.4317 17.1319 21.8011 16.7626C24.9796 13.5843 26.51 9.4304 27.2344 6.50526C28.0145 3.35517 28.0532 0.965153 28.0545 0.864964C28.0575 0.634892 27.9673 0.413151 27.8045 0.25037ZM6.18737 16.3097L7.64641 14.8507L13.204 20.4083L11.745 21.8673L6.18737 16.3097ZM6.22668 18.8206C6.23607 18.8112 6.24526 18.802 6.25466 18.7929L9.26183 21.8002C9.25265 21.8094 9.24346 21.8188 9.23427 21.828C7.57378 23.4885 5.16198 24.0343 3.842 24.2129C4.02059 22.8923 4.56661 20.4809 6.22668 18.8206ZM14.6165 19.4047L8.6498 13.438C9.49895 11.3613 10.7262 9.23557 12.5001 7.46165C14.8626 5.09919 17.8512 3.72645 20.3395 2.93604L25.1187 7.71543C24.3282 10.2035 22.9557 13.1921 20.593 15.5545C18.7978 17.3498 16.6406 18.5735 14.6165 19.4047ZM25.6309 5.86866L22.186 2.42377C23.9153 2.01127 25.3957 1.83588 26.2929 1.76175C26.2188 2.65918 26.0434 4.13959 25.6309 5.86866ZM4.14129 10.8204C5.66421 9.6045 7.30846 9.0023 9.04906 9.01832C8.2358 10.2484 7.59279 11.5233 7.08587 12.7518L2.48955 12.4649C2.898 11.9648 3.45171 11.3712 4.14129 10.8204ZM17.2345 23.9134C16.6835 24.603 16.0899 25.1569 15.5898 25.5654L15.3029 20.9688C16.5314 20.4617 17.8063 19.8189 19.0364 19.0056C19.0526 20.7464 18.4504 22.3907 17.2345 23.9134Z" fill="white" fill-opacity="0.8"/>
<path d="M20.4309 7.62378C19.781 6.97372 18.9167 6.61591 17.9977 6.61591C17.0785 6.61591 16.2141 6.97372 15.5643 7.62378C14.2225 8.96555 14.2225 11.1486 15.5643 12.4903C16.2141 13.1404 17.0785 13.4984 17.9977 13.4984C18.9167 13.4984 19.7808 13.1404 20.4309 12.4903C21.0809 11.8405 21.4387 10.9762 21.4387 10.0572C21.4387 9.13794 21.0809 8.27362 20.4309 7.62378ZM19.2228 11.2823C18.8955 11.6098 18.4604 11.7899 17.9977 11.7899C17.5348 11.7899 17.0996 11.6098 16.7721 11.2825C16.0967 10.6068 16.0967 9.50751 16.7721 8.83182C17.0996 8.50455 17.5348 8.32425 17.9977 8.32425C18.4604 8.32425 18.8955 8.50455 19.2228 8.83182C19.5501 9.15909 19.7304 9.59424 19.7304 10.0572C19.7304 10.5201 19.5501 10.955 19.2228 11.2823Z" fill="white" fill-opacity="0.8"/>
</g>
<defs>
<clipPath id="clip0_8_193">
<rect width="28" height="28" fill="white"/>
</clipPath>
</defs>
</svg>
