<svg width="28" height="28" viewBox="0 0 28 28" fill="none" xmlns="http://www.w3.org/2000/svg">
<g clip-path="url(#clip0_8_167)">
<path d="M18.9884 16.4725L15.0844 13.5445V7.58018C15.0844 6.98048 14.5997 6.49573 14 6.49573C13.4003 6.49573 12.9155 6.98048 12.9155 7.58018V14.0868C12.9155 14.4284 13.076 14.7505 13.3493 14.9544L17.687 18.2077C17.8822 18.3541 18.11 18.4245 18.3366 18.4245C18.6673 18.4245 18.9927 18.276 19.2052 17.9897C19.5654 17.5114 19.4677 16.8314 18.9884 16.4725Z" fill="white" fill-opacity="0.8"/>
<path d="M14 0C6.27993 0 0 6.27993 0 14C0 21.7201 6.27993 28 14 28C21.7201 28 28 21.7201 28 14C28 6.27993 21.7201 0 14 0ZM14 25.8311C7.47715 25.8311 2.16885 20.5229 2.16885 14C2.16885 7.47715 7.47715 2.16885 14 2.16885C20.5239 2.16885 25.8311 7.47715 25.8311 14C25.8311 20.5229 20.5229 25.8311 14 25.8311Z" fill="white" fill-opacity="0.8"/>
</g>
<defs>
<clipPath id="clip0_8_167">
<rect width="28" height="28" fill="white"/>
</clipPath>
</defs>
</svg>
