<svg width="18" height="20" viewBox="0 0 18 20" fill="none" xmlns="http://www.w3.org/2000/svg">
<mask id="path-1-inside-1_8_77" fill="white">
<path d="M13.3892 9.2696C13.3026 9.22808 13.2152 9.18837 13.1269 9.15052C12.9726 6.30606 11.4183 4.6776 8.80853 4.66094C7.30275 4.65093 5.95488 5.26493 5.11481 6.53964L6.55008 7.52425C7.14703 6.61859 8.08386 6.42549 8.77381 6.42549C8.78175 6.42549 8.78976 6.42549 8.79766 6.4256C9.65694 6.43104 10.3054 6.68089 10.7251 7.16811C11.0305 7.52284 11.2348 8.01304 11.3359 8.63166C10.5741 8.50214 9.75009 8.46237 8.86923 8.51281C6.38798 8.65579 4.79281 10.1029 4.89996 12.1137C4.95431 13.1337 5.46246 14.0113 6.33069 14.5845C7.06483 15.069 8.0103 15.306 8.99296 15.2524C10.2906 15.1813 11.3086 14.6861 12.0188 13.7808C12.5582 13.0934 12.8993 12.2024 13.05 11.0798C13.6684 11.453 14.1268 11.9442 14.3799 12.5346C14.8103 13.5382 14.8354 15.1875 13.4897 16.5321C12.3106 17.71 10.8933 18.2195 8.7514 18.2353C6.37543 18.2177 4.5785 17.4558 3.41021 15.9705C2.31618 14.5798 1.75078 12.571 1.7297 9.99998C1.75078 7.42895 2.31618 5.42015 3.41021 4.02945C4.5785 2.54424 6.37539 1.78226 8.75136 1.76466C11.1445 1.78246 12.9728 2.54808 14.1858 4.04044C14.7806 4.77224 15.2291 5.6926 15.5247 6.76567L17.2066 6.31689C16.8483 4.99608 16.2845 3.85786 15.5171 2.91399C13.9621 1.00073 11.6877 0.0202961 8.75723 0H8.74549C5.82098 0.020257 3.57207 1.00436 2.06124 2.9249C0.716854 4.634 0.0233855 7.01204 7.82122e-05 9.99294L0 9.99998L7.82122e-05 10.007C0.0233855 12.9879 0.716854 15.366 2.06124 17.0751C3.57207 18.9956 5.82098 19.9798 8.74549 20H8.75723C11.3573 19.9819 13.19 19.3013 14.6998 17.7928C16.6751 15.8194 16.6156 13.3457 15.9646 11.8272C15.4975 10.7382 14.607 9.85376 13.3892 9.2696ZM8.90004 13.4903C7.81254 13.5516 6.68273 13.0634 6.62704 12.0179C6.58574 11.2427 7.17875 10.3777 8.96676 10.2747C9.17156 10.2629 9.37248 10.2571 9.56985 10.2571C10.2194 10.2571 10.827 10.3201 11.3794 10.4409C11.1734 13.014 9.96478 13.4319 8.90004 13.4903Z"/>
</mask>
<path d="M13.3892 9.2696C13.3026 9.22808 13.2152 9.18837 13.1269 9.15052C12.9726 6.30606 11.4183 4.6776 8.80853 4.66094C7.30275 4.65093 5.95488 5.26493 5.11481 6.53964L6.55008 7.52425C7.14703 6.61859 8.08386 6.42549 8.77381 6.42549C8.78175 6.42549 8.78976 6.42549 8.79766 6.4256C9.65694 6.43104 10.3054 6.68089 10.7251 7.16811C11.0305 7.52284 11.2348 8.01304 11.3359 8.63166C10.5741 8.50214 9.75009 8.46237 8.86923 8.51281C6.38798 8.65579 4.79281 10.1029 4.89996 12.1137C4.95431 13.1337 5.46246 14.0113 6.33069 14.5845C7.06483 15.069 8.0103 15.306 8.99296 15.2524C10.2906 15.1813 11.3086 14.6861 12.0188 13.7808C12.5582 13.0934 12.8993 12.2024 13.05 11.0798C13.6684 11.453 14.1268 11.9442 14.3799 12.5346C14.8103 13.5382 14.8354 15.1875 13.4897 16.5321C12.3106 17.71 10.8933 18.2195 8.7514 18.2353C6.37543 18.2177 4.5785 17.4558 3.41021 15.9705C2.31618 14.5798 1.75078 12.571 1.7297 9.99998C1.75078 7.42895 2.31618 5.42015 3.41021 4.02945C4.5785 2.54424 6.37539 1.78226 8.75136 1.76466C11.1445 1.78246 12.9728 2.54808 14.1858 4.04044C14.7806 4.77224 15.2291 5.6926 15.5247 6.76567L17.2066 6.31689C16.8483 4.99608 16.2845 3.85786 15.5171 2.91399C13.9621 1.00073 11.6877 0.0202961 8.75723 0H8.74549C5.82098 0.020257 3.57207 1.00436 2.06124 2.9249C0.716854 4.634 0.0233855 7.01204 7.82122e-05 9.99294L0 9.99998L7.82122e-05 10.007C0.0233855 12.9879 0.716854 15.366 2.06124 17.0751C3.57207 18.9956 5.82098 19.9798 8.74549 20H8.75723C11.3573 19.9819 13.19 19.3013 14.6998 17.7928C16.6751 15.8194 16.6156 13.3457 15.9646 11.8272C15.4975 10.7382 14.607 9.85376 13.3892 9.2696ZM8.90004 13.4903C7.81254 13.5516 6.68273 13.0634 6.62704 12.0179C6.58574 11.2427 7.17875 10.3777 8.96676 10.2747C9.17156 10.2629 9.37248 10.2571 9.56985 10.2571C10.2194 10.2571 10.827 10.3201 11.3794 10.4409C11.1734 13.014 9.96478 13.4319 8.90004 13.4903Z" fill="white" fill-opacity="0.8" stroke="white" stroke-opacity="0.6" stroke-width="2" mask="url(#path-1-inside-1_8_77)"/>
</svg>
